<svg width="24" height="30" viewBox="0 0 24 30" fill="none" xmlns="http://www.w3.org/2000/svg">
<g clip-path="url(#clip0_486_215)">
<path d="M12 6.25C13.2081 6.25 14.1875 5.27062 14.1875 4.0625C14.1875 2.85438 13.2081 1.875 12 1.875C10.7919 1.875 9.8125 2.85438 9.8125 4.0625C9.8125 5.27062 10.7919 6.25 12 6.25Z" stroke="black" stroke-opacity="0.6" stroke-width="2" stroke-miterlimit="10"/>
<path d="M8.89922 17.1667L7.23672 26.5839C7.20683 26.7538 7.21071 26.9278 7.24814 27.0962C7.28557 27.2646 7.35581 27.4239 7.45484 27.5651C7.55388 27.7063 7.67978 27.8266 7.82533 27.9191C7.97088 28.0116 8.13324 28.0745 8.30312 28.1042C8.47236 28.1343 8.64588 28.1306 8.81364 28.0931C8.98141 28.0557 9.14008 27.9853 9.28046 27.8862C9.42085 27.787 9.54016 27.6609 9.63149 27.5153C9.72281 27.3697 9.78434 27.2074 9.8125 27.0378L10.9609 20.4808V20.4917C10.9609 20.4917 11.2453 18.7144 11.918 18.7144H12.0875C12.7711 18.7144 13.0445 20.4917 13.0445 20.4917V20.4863L14.193 27.0433C14.2539 27.3849 14.448 27.6882 14.7326 27.8867C15.0172 28.0851 15.369 28.1624 15.7105 28.1015C16.0521 28.0406 16.3555 27.8465 16.5539 27.5619C16.7524 27.2773 16.8297 26.9255 16.7688 26.5839L15.1062 17.1667L14.8383 15.5425C14.6797 14.5527 14.6086 12.9394 14.8656 12.2777C15.0844 11.7089 15.6384 11.5011 16.1344 11.5011H21.1875C21.5356 11.5011 21.8694 11.3628 22.1156 11.1167C22.3617 10.8705 22.5 10.5367 22.5 10.1886C22.5 9.8405 22.3617 9.50666 22.1156 9.26052C21.8694 9.01438 21.5356 8.8761 21.1875 8.8761H2.8125C2.4644 8.8761 2.13056 9.01438 1.88442 9.26052C1.63828 9.50666 1.5 9.8405 1.5 10.1886C1.5 10.5367 1.63828 10.8705 1.88442 11.1167C2.13056 11.3628 2.4644 11.5011 2.8125 11.5011H7.87109C8.37586 11.5011 8.92109 11.7089 9.13984 12.2777C9.39687 12.9394 9.32578 14.5527 9.16719 15.5425L8.89922 17.1667Z" stroke="black" stroke-opacity="0.6" stroke-width="2" stroke-miterlimit="10"/>
</g>
<defs>
<clipPath id="clip0_486_215">
<rect width="24" height="30" fill="white"/>
</clipPath>
</defs>
</svg>
