<svg width="28" height="24" viewBox="0 0 28 24" fill="none" xmlns="http://www.w3.org/2000/svg">
<g clip-path="url(#clip0_485_188)">
<path d="M14 6.75001C14.875 3.29594 18.1798 1.53227 25.375 1.50001C25.49 1.49957 25.604 1.52191 25.7104 1.56573C25.8167 1.60955 25.9134 1.67398 25.9947 1.75532C26.076 1.83666 26.1405 1.93329 26.1843 2.03965C26.2281 2.146 26.2504 2.25998 26.25 2.37501V18.125C26.25 18.3571 26.1578 18.5796 25.9937 18.7437C25.8296 18.9078 25.6071 19 25.375 19C18.375 19 15.6707 20.4115 14 22.5C12.3391 20.4219 9.62501 19 2.62501 19C2.08469 19 1.75001 18.5598 1.75001 18.0195V2.37501C1.74957 2.25998 1.77191 2.146 1.81573 2.03965C1.85955 1.93329 1.92398 1.83666 2.00532 1.75532C2.08666 1.67398 2.18329 1.60955 2.28965 1.56573C2.396 1.52191 2.50998 1.49957 2.62501 1.50001C9.82024 1.53227 13.125 3.29594 14 6.75001Z" stroke="#FF7700" stroke-width="2" stroke-linecap="round" stroke-linejoin="round"/>
<path d="M14 6.75V22.5" stroke="#FF7700" stroke-width="2" stroke-linecap="round" stroke-linejoin="round"/>
</g>
<defs>
<clipPath id="clip0_485_188">
<rect width="28" height="24" fill="white"/>
</clipPath>
</defs>
</svg>
