<svg width="26" height="26" viewBox="0 0 26 26" fill="none" xmlns="http://www.w3.org/2000/svg">
<g clip-path="url(#clip0_486_225)">
<path d="M24.375 13C24.375 6.71805 19.282 1.625 13 1.625C6.71805 1.625 1.625 6.71805 1.625 13C1.625 19.282 6.71805 24.375 13 24.375C19.282 24.375 24.375 19.282 24.375 13Z" stroke="black" stroke-opacity="0.6" stroke-width="2" stroke-miterlimit="10"/>
<path d="M23.3671 8.41389C22.4888 8.41936 22.5752 10.0398 21.4809 9.27522C21.0746 8.99194 20.8247 8.58014 20.3145 8.45491C19.8688 8.34554 19.4121 8.45929 18.9719 8.5353C18.4715 8.62171 17.8781 8.66054 17.4986 9.03952C17.1316 9.40429 16.9375 9.89374 16.547 10.2607C15.7918 10.9716 15.473 11.7476 15.9619 12.7528C16.4322 13.7191 17.416 14.2436 18.4775 14.1747C19.5204 14.1052 20.6038 13.5004 20.5737 15.0158C20.5627 15.5517 20.6749 15.9236 20.8395 16.4218C20.992 16.8812 20.9816 17.3263 21.0166 17.8005C21.0812 18.6864 21.2441 19.6795 21.6838 20.4621L22.5041 19.3049C22.6053 19.1616 22.817 18.9609 22.8673 18.7919C22.9564 18.4928 22.7809 17.9787 22.7606 17.6435C22.7404 17.3083 22.7502 16.9687 22.6988 16.6334C22.6266 16.1637 22.3488 15.7234 22.3106 15.2591C22.24 14.3945 22.3981 13.7044 21.732 12.9814C21.0888 12.2841 20.146 12.1168 19.2453 12.2584C18.7914 12.3295 16.9643 12.6216 17.6977 11.5841C17.8426 11.3801 18.0958 11.2128 18.2588 11.0187C18.4004 10.8497 18.5234 10.5391 18.6897 10.4073C18.8559 10.2755 19.6194 10.124 19.8381 10.1912C20.0569 10.2585 20.2849 10.5741 20.4747 10.7141C20.8253 10.9781 21.2345 11.1537 21.6674 11.2259C22.4145 11.3353 23.9763 10.9011 23.9643 9.94296C23.9621 9.48358 23.5356 8.84374 23.3671 8.41389Z" fill="black" fill-opacity="0.6"/>
<path d="M14.7199 16.2977C14.4284 15.0705 12.761 14.6603 11.862 13.9948C11.3452 13.612 10.8852 13.0208 10.2066 12.9727C9.89375 12.9502 9.6318 13.0181 9.32172 12.9377C9.03735 12.8644 8.81422 12.7113 8.51125 12.7512C7.94524 12.8256 7.58813 13.4304 6.98 13.3484C6.40305 13.2707 5.8086 12.5959 5.67735 12.0463C5.50891 11.3397 6.06781 11.1106 6.66664 11.0477C6.91656 11.0214 7.19711 10.993 7.43719 11.0843C7.75328 11.2019 7.90258 11.5114 8.18641 11.6678C8.71852 11.9593 8.82625 11.4934 8.74477 11.0209C8.62281 10.3132 8.48063 10.0245 9.11172 9.53774C9.54922 9.20196 9.92328 8.95915 9.85328 8.35595C9.81172 8.00157 9.61758 7.84134 9.7986 7.4886C9.93586 7.22009 10.3127 6.97782 10.5582 6.81759C11.192 6.40415 13.2734 6.43478 12.423 5.27759C12.1731 4.93798 11.7121 4.33095 11.2746 4.24782C10.7277 4.14446 10.4849 4.75478 10.1038 5.02384C9.71 5.3022 8.94328 5.61829 8.54899 5.1879C8.01852 4.60876 8.90063 4.41845 9.09586 4.01431C9.2911 3.61017 8.6436 2.84618 8.29688 2.65259L6.66664 4.48079C6.61981 4.78696 6.63611 5.09948 6.71455 5.39912C6.79299 5.69876 6.9319 5.97918 7.12274 6.22313C7.44703 6.6404 7.96328 6.77438 7.9868 7.34423C8.00977 7.8911 7.92446 8.1711 7.5668 8.55556C7.41203 8.71962 7.30266 8.95259 7.14516 9.10626C6.95211 9.29384 7.02375 9.23642 6.72242 9.28782C6.15586 9.38352 5.67352 9.53118 5.1261 9.68212C4.21391 9.93423 4.12969 8.44399 3.71406 7.85938L2.34688 8.96353C2.33211 9.14454 2.5711 9.47759 2.63617 9.67446C3.00969 10.7994 3.76328 11.6695 4.25 12.7457C4.76242 13.8854 6.13836 13.5693 6.74594 14.5679C7.28516 15.4538 6.7093 16.5755 7.11289 17.503C7.40602 18.1762 8.09727 18.3233 8.57414 18.8155C9.06141 19.3126 9.05102 19.9929 9.12539 20.6399C9.20927 21.4008 9.3454 22.1551 9.53281 22.8974C9.59899 23.1538 9.65969 23.4929 9.83524 23.7045C9.95555 23.85 10.3684 23.9752 10.2016 24.0234C10.4346 24.0617 10.8497 24.2793 11.0438 24.1196C11.2998 23.9096 11.2314 23.2632 11.2757 22.9712C11.4086 22.1016 11.8439 21.2513 12.4313 20.6005C13.0115 19.9584 13.8066 19.5237 14.2966 18.7958C14.7741 18.0859 14.9179 17.1284 14.7199 16.2977ZM12.8939 17.737C12.5658 18.3227 11.8352 18.7149 11.3654 19.1802C11.238 19.3066 10.9667 19.7441 10.807 19.6495C10.6927 19.5816 10.6539 19.014 10.6118 18.8838C10.3946 18.2284 9.97984 17.6563 9.42453 17.2459C9.25336 17.1163 8.82899 16.9479 8.7311 16.7702C8.62172 16.5771 8.72016 16.1216 8.72399 15.9116C8.73 15.6053 8.59055 15.0962 8.66602 14.8178C8.75352 14.4968 8.58508 14.6904 8.87219 14.627C9.02367 14.5931 9.6493 14.703 9.83797 14.7424C10.1377 14.8047 10.3028 14.9912 10.5391 15.1799C11.1603 15.6781 11.8445 16.0636 12.5406 16.4453C13.0798 16.7439 13.2384 17.1218 12.8939 17.737Z" fill="black" fill-opacity="0.6"/>
<path d="M9.08766 2.66905C9.34688 2.92225 9.59079 3.22194 9.97743 3.24709C10.3433 3.2717 10.6884 3.07373 11.0077 3.32256C11.3621 3.596 11.6175 3.94217 12.0878 4.02748C12.5428 4.11006 13.0246 3.84428 13.1373 3.37889C13.2466 2.93537 13.0109 2.45303 12.9967 2.00787C12.9967 1.94608 13.0301 1.67155 12.9874 1.62506C12.9557 1.59006 12.691 1.62944 12.6506 1.63053C12.3541 1.63928 12.0585 1.6597 11.7635 1.69178C10.6883 1.80816 9.63523 2.07796 8.63649 2.49295C8.76938 2.58483 8.93618 2.62147 9.08766 2.66905Z" fill="black" fill-opacity="0.6"/>
<path d="M18.4906 5.74136C18.9549 5.74136 19.4263 5.53355 19.2765 4.99652C19.1507 4.54644 18.9363 4.05808 18.4146 4.30089C18.0827 4.45511 17.6123 4.84777 17.5735 5.23714C17.5292 5.67902 18.1811 5.74136 18.4906 5.74136Z" fill="black" fill-opacity="0.6"/>
<path d="M18.1198 8.09121C18.594 8.37504 19.2973 8.2416 19.6549 7.83636C19.9344 7.51918 20.099 6.96847 20.6016 6.96902C20.8228 6.96856 21.0354 7.05519 21.1933 7.21019C21.4011 7.42511 21.3601 7.62691 21.4044 7.89597C21.5034 8.50027 22.1514 7.93043 22.3204 7.69636C22.4298 7.54379 22.578 7.31738 22.5282 7.11886C22.4823 6.93347 22.2657 6.73605 22.1695 6.56597C21.8884 6.07379 21.657 5.50121 21.2359 5.10363C20.8307 4.72082 20.3325 4.76511 19.948 5.16269C19.633 5.49082 19.2672 5.75058 19.0517 6.1498C18.8997 6.43035 18.7285 6.56433 18.4206 6.63707C18.2511 6.67699 18.0575 6.69175 17.9153 6.8055C17.5194 7.11722 17.7447 7.8659 18.1198 8.09121Z" fill="black" fill-opacity="0.6"/>
</g>
<defs>
<clipPath id="clip0_486_225">
<rect width="26" height="26" fill="white"/>
</clipPath>
</defs>
</svg>
