<svg width="28" height="18" viewBox="0 0 28 18" fill="none" xmlns="http://www.w3.org/2000/svg">
<g clip-path="url(#clip0_486_208)">
<path d="M13.9814 1.125C9.71905 1.125 5.34679 3.59195 1.90476 8.52586C1.80651 8.66824 1.75267 8.83655 1.75004 9.00952C1.74741 9.18249 1.79611 9.35236 1.88999 9.49766C4.53468 13.6375 8.84843 16.875 13.9814 16.875C19.0586 16.875 23.4609 13.6277 26.1105 9.47852C26.2022 9.33606 26.251 9.17023 26.251 9.00082C26.251 8.83141 26.2022 8.66558 26.1105 8.52312C23.4549 4.42156 19.0203 1.125 13.9814 1.125Z" stroke="black" stroke-opacity="0.6" stroke-width="2" stroke-linecap="round" stroke-linejoin="round"/>
<path d="M14 13.375C16.4162 13.375 18.375 11.4162 18.375 9C18.375 6.58375 16.4162 4.625 14 4.625C11.5838 4.625 9.625 6.58375 9.625 9C9.625 11.4162 11.5838 13.375 14 13.375Z" stroke="black" stroke-opacity="0.6" stroke-width="2" stroke-miterlimit="10"/>
</g>
<defs>
<clipPath id="clip0_486_208">
<rect width="28" height="18" fill="white"/>
</clipPath>
</defs>
</svg>
