<svg width="24" height="24" viewBox="0 0 24 24" fill="none" xmlns="http://www.w3.org/2000/svg">
<g clip-path="url(#clip0_485_197)">
<path d="M12 23.375C5.72789 23.375 0.625 18.2721 0.625 12C0.625 5.72789 5.72789 0.625 12 0.625C18.2721 0.625 23.375 5.72789 23.375 12C23.375 18.2721 18.2721 23.375 12 23.375ZM12 2.375C6.69531 2.375 2.375 6.69531 2.375 12C2.375 17.3047 6.69531 21.625 12 21.625C17.3047 21.625 21.625 17.3074 21.625 12C21.625 6.69258 17.3074 2.375 12 2.375Z" fill="#FF7700"/>
<path d="M15.7007 13.9688C14.7491 13.9688 13.8298 13.5466 13.1118 12.7804C12.4016 12.01 11.9769 11.0194 11.9087 9.97383C11.8283 8.8418 12.1755 7.8 12.8865 7.04148C13.5974 6.28297 14.5911 5.875 15.7007 5.875C16.8021 5.875 17.7991 6.29172 18.5078 7.04859C19.2166 7.80547 19.5726 8.85328 19.4922 9.97492C19.4227 11.0199 18.9982 12.0097 18.2891 12.7804C17.5705 13.5466 16.6517 13.9688 15.7007 13.9688Z" fill="#FF7700"/>
<path d="M6.95891 14.1525C5.33141 14.1525 3.90023 12.6481 3.76898 10.7986C3.70172 9.85138 3.99594 8.97583 4.59859 8.33325C5.20125 7.69067 6.0325 7.34888 6.95836 7.34888C7.88422 7.34888 8.71492 7.70106 9.31375 8.34091C9.91258 8.98075 10.2161 9.86231 10.1477 10.8018C10.0143 12.6486 8.58367 14.1525 6.95891 14.1525Z" fill="#FF7700"/>
<path d="M20.989 17.4294C20.902 17.1724 20.6904 16.8984 20.266 16.6386C18.983 15.855 17.4048 15.4404 15.7007 15.4404C14.0289 15.4404 12.4069 15.8725 11.1327 16.6572C9.69711 17.5415 8.73242 18.8311 8.34359 20.3858C8.25172 20.7517 8.11773 21.4325 8.26101 21.8137C10.5603 22.6881 13.0935 22.7282 15.4194 21.9271C17.7453 21.1259 19.7164 19.5343 20.9895 17.4294H20.989Z" fill="#FF7700"/>
<path d="M6.94852 19.95C7.33516 18.4072 8.15821 17.121 9.43516 16.0808C9.49553 16.031 9.54143 15.9659 9.56809 15.8924C9.59474 15.8188 9.60117 15.7394 9.58671 15.6625C9.57224 15.5856 9.53741 15.514 9.48584 15.4551C9.43427 15.3962 9.36786 15.3523 9.29352 15.3278C8.63727 15.1183 7.88805 15.0062 6.95891 15.0062C5.65626 15.0062 4.27321 15.359 3.23251 15.9999C2.93719 16.182 2.64735 16.252 2.42422 16.3144C3.32005 18.2943 4.80564 19.9491 6.67782 21.0525L6.77571 21.0448C6.79712 20.6751 6.855 20.3083 6.94852 19.95Z" fill="#FF7700"/>
</g>
<defs>
<clipPath id="clip0_485_197">
<rect width="24" height="24" fill="white"/>
</clipPath>
</defs>
</svg>
