<svg width="30" height="30" viewBox="0 0 30 30" fill="none" xmlns="http://www.w3.org/2000/svg">
<g clip-path="url(#clip0_486_211)">
<path d="M15.2144 15.3778L12.8344 9.19049C12.7987 9.09764 12.7356 9.01779 12.6536 8.96147C12.5716 8.90515 12.4745 8.875 12.375 8.875C12.2755 8.875 12.1784 8.90515 12.0964 8.96147C12.0144 9.01779 11.9513 9.09764 11.9156 9.19049L9.53563 15.3778C9.5109 15.4421 9.47297 15.5005 9.42426 15.5492C9.37556 15.5979 9.31718 15.6358 9.25289 15.6606L3.06555 18.0406C2.9727 18.0763 2.89285 18.1393 2.83653 18.2213C2.78021 18.3033 2.75006 18.4005 2.75006 18.4999C2.75006 18.5994 2.78021 18.6966 2.83653 18.7786C2.89285 18.8606 2.9727 18.9236 3.06555 18.9593L9.25289 21.3393C9.31718 21.364 9.37556 21.402 9.42426 21.4507C9.47297 21.4994 9.5109 21.5578 9.53563 21.622L11.9156 27.8094C11.9513 27.9022 12.0144 27.9821 12.0964 28.0384C12.1784 28.0947 12.2755 28.1249 12.375 28.1249C12.4745 28.1249 12.5716 28.0947 12.6536 28.0384C12.7356 27.9821 12.7987 27.9022 12.8344 27.8094L15.2144 21.622C15.2391 21.5578 15.277 21.4994 15.3257 21.4507C15.3744 21.402 15.4328 21.364 15.4971 21.3393L21.6845 18.9593C21.7773 18.9236 21.8572 18.8606 21.9135 18.7786C21.9698 18.6966 21.9999 18.5994 21.9999 18.4999C21.9999 18.4005 21.9698 18.3033 21.9135 18.2213C21.8572 18.1393 21.7773 18.0763 21.6845 18.0406L15.4971 15.6606C15.4328 15.6358 15.3744 15.5979 15.3257 15.5492C15.277 15.5005 15.2391 15.4421 15.2144 15.3778Z" stroke="#FF7700" stroke-width="2" stroke-linecap="round" stroke-linejoin="round"/>
<path d="M6.90625 4.71875L5.8125 1.875L4.71875 4.71875L1.875 5.8125L4.71875 6.90625L5.8125 9.75L6.90625 6.90625L9.75 5.8125L6.90625 4.71875Z" stroke="#FF7700" stroke-width="2" stroke-linecap="round" stroke-linejoin="round"/>
<path d="M24.3335 7.41648L22.875 3.625L21.4165 7.41648L17.625 8.875L21.4165 10.3335L22.875 14.125L24.3335 10.3335L28.125 8.875L24.3335 7.41648Z" stroke="#FF7700" stroke-width="2" stroke-linecap="round" stroke-linejoin="round"/>
</g>
<defs>
<clipPath id="clip0_486_211">
<rect width="30" height="30" fill="white"/>
</clipPath>
</defs>
</svg>
