<svg width="17" height="28" viewBox="0 0 17 28" fill="none" xmlns="http://www.w3.org/2000/svg">
<g clip-path="url(#clip0_485_191)">
<path d="M12.1834 26.3769L9.07876 20.102L6.62384 16.9635C6.26117 16.3499 6.06986 15.6501 6.06985 14.9373V7.875H6.92681C7.2157 7.87493 7.50178 7.93177 7.7687 8.04227C8.03562 8.15278 8.27816 8.31478 8.48247 8.51903C8.68677 8.72329 8.84883 8.96579 8.9594 9.23268C9.06998 9.49958 9.12689 9.78564 9.12689 10.0745V20.102" stroke="black" stroke-opacity="0.6" stroke-width="2" stroke-linecap="round" stroke-linejoin="round"/>
<path d="M1.99454 16.0262V11.9509C1.99454 11.9509 4.03219 7.875 6.06985 7.875" stroke="black" stroke-opacity="0.6" stroke-width="2" stroke-linecap="round" stroke-linejoin="round"/>
<path d="M15.2398 15.0073L11.625 12.6328" stroke="black" stroke-opacity="0.6" stroke-width="2" stroke-linecap="round" stroke-linejoin="round"/>
<path d="M4.32587 26.1603L7.25001 21.875" stroke="black" stroke-opacity="0.6" stroke-width="2" stroke-linecap="round" stroke-linejoin="round"/>
<path d="M9.12689 5.8374C10.2523 5.8374 11.1645 4.92511 11.1645 3.79974C11.1645 2.67437 10.2523 1.76208 9.12689 1.76208C8.00152 1.76208 7.08923 2.67437 7.08923 3.79974C7.08923 4.92511 8.00152 5.8374 9.12689 5.8374Z" stroke="black" stroke-opacity="0.6" stroke-width="2" stroke-linecap="round" stroke-linejoin="round"/>
</g>
<defs>
<clipPath id="clip0_485_191">
<rect width="17" height="28" fill="white"/>
</clipPath>
</defs>
</svg>
