<svg width="14" height="16" viewBox="0 0 14 16" fill="none" xmlns="http://www.w3.org/2000/svg">
<path d="M5.20994 15.119C4.75362 15.119 4.32143 14.8997 4.04449 14.5217L0.296347 9.42291C0.180465 9.26545 0.0958645 9.08601 0.0473806 8.89486C-0.00110318 8.70371 -0.012519 8.5046 0.0137855 8.30891C0.0400901 8.11321 0.103599 7.92478 0.200682 7.75437C0.297766 7.58396 0.426519 7.43492 0.579582 7.31578C0.73259 7.19614 0.907027 7.10876 1.0929 7.05865C1.27876 7.00855 1.47241 6.9967 1.66273 7.02379C1.85306 7.05088 2.03632 7.11638 2.20201 7.21652C2.3677 7.31667 2.51257 7.44949 2.62831 7.60739L5.09455 10.9598L11.2953 0.708168C11.5009 0.369687 11.8286 0.128999 12.2064 0.0389C12.5841 -0.0511991 12.9812 0.0166467 13.3105 0.227555C13.9955 0.666047 14.2063 1.59487 13.7783 2.30121L6.45198 14.4083C6.32691 14.6159 6.15453 14.789 5.94979 14.9124C5.74504 15.0359 5.51413 15.1061 5.27708 15.1168C5.254 15.119 5.23302 15.119 5.20994 15.119Z" fill="#FF7700"/>
</svg>
