<svg width="112" height="40" viewBox="0 0 112 40" fill="none" xmlns="http://www.w3.org/2000/svg">
<path d="M44.5749 1.84453C42.542 3.48412 41.8367 3.68906 38.1442 3.68906C34.9911 3.68906 33.2486 3.27917 30.8838 2.04948C28.3115 0.751475 27.2328 0.546527 24.4531 0.819791C22.6276 1.02474 20.3873 1.63958 19.433 2.18611C17.9395 3.07422 17.4416 3.07422 15.2842 2.1178C12.2556 0.819791 0.804811 0.683159 0.0580224 1.98116C-0.315372 2.59601 1.05374 2.66432 5.90787 2.52769C13.1683 2.18611 14.0396 2.59601 12.8364 5.60191C12.2141 7.17318 11.8407 7.44644 10.0982 7.44644C8.52163 7.44644 7.85782 7.78802 6.94507 9.22266L5.7834 10.9989L7.35996 9.49592C8.56312 8.33455 9.30991 8.06129 10.5546 8.40287C11.8407 8.74445 12.38 8.5395 13.3343 7.24149C15.0768 4.85043 25.1169 1.7079 27.0669 3.0059C28.2286 3.75738 26.1541 6.08012 24.2457 6.08012C22.6276 6.08012 20.5117 8.19792 20.5117 9.8375C20.5117 11.682 19.3916 12.4335 17.8565 11.5454C16.5289 10.8622 16.0725 10.9989 12.8779 13.3899C10.9279 14.7563 9.43437 16.0543 9.51735 16.1909C9.60032 16.3958 10.9279 15.5077 12.463 14.3464C14.0811 13.1167 15.8236 12.2286 16.7363 12.2969L18.2299 12.3652L17.0682 13.185C16.4459 13.6632 15.5331 15.0295 15.1183 16.1909C14.6619 17.4206 14.0396 18.377 13.7077 18.377C13.3758 18.377 13.0024 18.6503 12.8779 18.9918C12.7534 19.2651 13.1268 19.4017 13.7077 19.1968C14.3715 18.9918 15.1183 17.9671 15.6161 16.6008C16.7778 13.3216 18.4788 12.98 21.0511 15.3028C22.4617 16.6008 23.4574 17.079 24.4531 16.8741C26.2786 16.5325 26.3201 17.2839 24.5776 18.377C21.4245 20.2899 20.5532 21.1096 19.682 23.2958L18.7277 25.5502L20.2213 23.0225C21.217 21.3146 22.3372 20.2215 23.6234 19.675C24.951 19.1285 25.8222 18.2404 26.4446 16.8741C27.5233 14.4147 30.5519 11.3405 31.8795 11.3405C33.0827 11.3405 34.7422 13.185 35.406 15.1662C35.8209 16.4642 35.7379 17.1473 34.8252 19.9483L33.705 23.1591L30.5519 22.9542C27.4403 22.8175 27.2743 22.8859 24.951 25.4819C21.8394 28.966 22.2128 29.5125 25.4488 26.2333C27.8966 23.774 28.0626 23.6373 30.6349 24.1156C32.087 24.3205 33.5805 24.3888 33.9124 24.1156C34.2858 23.9106 35.1571 22.0661 35.8624 20.0166C36.8581 17.079 37.3145 16.3275 38.1442 16.3275C39.3889 16.3275 39.2229 17.079 37.1485 21.3829C36.4432 22.8859 35.7379 25.2769 35.6135 26.7116C35.406 28.4195 34.9911 29.7858 34.3273 30.5373C32.087 33.1333 31.5891 34.0897 33.3316 32.4501C35.2816 30.6739 36.2358 28.5561 36.2773 26.0967C36.2773 25.2086 36.8996 23.3641 37.6464 21.9978C38.4347 20.5631 39.3059 18.7869 39.6378 17.9671C40.2187 16.6008 40.2601 16.6008 42.2931 17.6255C44.6579 18.8552 45.0313 20.2899 43.9526 24.0472C43.4962 25.7551 42.625 26.9165 40.924 28.3511C39.2229 29.7858 38.3102 31.0838 37.6464 33.0649C36.5677 36.2758 36.4432 37.3689 37.3145 36.1392C37.6464 35.661 37.9368 34.9095 37.9368 34.4313C37.9368 32.9966 40.0112 30.1274 41.5878 29.2393C42.459 28.8294 43.6207 27.7363 44.2015 26.7799C45.2387 25.2086 45.3217 25.2086 46.193 26.37C47.1887 27.668 47.2302 28.4878 46.8153 33.8164C46.6908 35.7976 46.7323 37.8471 46.8983 38.3936C47.1472 39.1451 47.3132 38.3253 47.3546 35.9342C47.3546 33.9531 47.5206 31.0838 47.6866 29.5808C47.894 27.5997 47.7695 26.165 47.3132 24.6621C46.3174 21.4512 46.4834 19.88 47.977 18.377C49.2631 17.1473 52.3332 15.9176 52.7066 16.5325C52.7896 16.6691 52.4162 18.4453 51.8354 20.4948C50.9226 23.7057 50.8397 24.7304 51.0471 28.761C51.296 32.86 51.2545 33.3382 50.4248 34.0214C49.761 34.6362 49.5535 35.3877 49.595 37.3689C49.678 39.6233 49.678 39.6916 49.8439 37.8471C49.9684 36.754 50.4663 34.9778 51.0056 33.9531C51.8769 32.3135 51.9598 31.562 51.7524 28.2828C51.5035 24.5254 51.9598 22.476 53.0385 22.476C53.329 22.476 53.9513 23.7057 54.4491 25.1403C55.1959 27.3264 55.3619 28.966 55.4034 34.0897C55.4449 42.0827 56.1502 41.946 56.4406 33.8164C56.731 24.9353 58.598 19.7433 59.9671 23.9106C60.2575 24.867 60.3405 26.7116 60.1745 28.8294C59.9256 31.8353 60.0086 32.4501 60.9213 34.0214C61.4607 34.9778 62 36.6857 62.1245 37.8471L62.2904 39.8965L62.3734 37.7788C62.4149 36.3441 62.083 35.0461 61.3777 33.8164C60.1745 31.6986 60.216 32.1085 60.7968 28.2828C61.2117 25.4819 61.1702 24.867 59.9671 20.6997L58.6809 16.1909L60.6309 16.6691C63.0372 17.2156 65.0701 18.9918 65.2361 20.7681C65.3191 21.4512 64.9872 23.3641 64.4478 25.072C63.618 27.8729 63.5766 28.3511 64.1159 30.264C64.4063 31.4254 64.6553 34.0214 64.6553 36.0025C64.6553 38.1203 64.7797 39.2134 64.9872 38.7352C65.485 37.4372 65.402 33.4748 64.8212 30.8788C64.3648 28.761 64.4063 28.4878 65.4435 26.7799L66.5637 24.9353L67.6839 26.7116C68.3477 27.668 69.5509 28.8294 70.3806 29.2393C71.9572 30.1274 73.7827 32.9966 74.239 35.456C74.3635 36.2075 74.6539 36.8223 74.8614 36.8223C75.2762 36.8223 74.239 32.2452 73.4508 30.7422C73.2018 30.1957 71.9987 29.0343 70.7955 28.1462C68.9285 26.7799 68.4722 26.0967 67.7669 23.4324C66.7297 19.7433 67.0201 18.9235 69.7998 17.4206C71.1274 16.6691 71.7912 16.5325 71.8742 17.0107C71.9572 17.4206 72.787 19.1285 73.6582 20.8364C74.5295 22.5443 75.4007 24.7304 75.5252 25.7551C75.6496 26.7799 75.8571 28.1462 75.9815 28.761C76.1475 29.9907 79.757 34.4996 80.0889 33.9531C80.1719 33.8164 79.4251 32.6551 78.3879 31.4937C76.8943 29.7175 76.4794 28.8294 76.272 26.6432C76.106 25.072 75.3177 22.476 74.3635 20.2899C72.7455 16.8057 72.7455 16.6691 73.6167 16.4642C74.5709 16.1909 75.1518 17.2156 76.7283 21.7928L77.5996 24.1839H81.0846C84.4037 24.1839 84.7356 24.3205 86.81 26.5066C88.0131 27.8046 89.0503 28.6927 89.1748 28.4878C89.2993 28.2828 88.2206 26.9165 86.81 25.4819C84.4037 23.0225 83.9473 22.8175 81.1676 22.8175H78.1389L77.0602 19.5384L75.9401 16.3275L76.7698 14.483C77.2677 13.4583 78.1804 12.2286 78.8857 11.7504C80.0059 10.9989 80.3793 11.1355 82.2878 12.6385C83.4494 13.5949 84.6941 15.2345 85.109 16.3275C85.8557 18.377 87.2249 19.7433 88.6355 19.7433C89.1333 19.7433 90.295 21.0413 91.3322 22.8175C93.3236 26.3017 93.6555 26.3017 92.079 22.8175C91.4982 21.5879 90.4609 20.2215 89.7971 19.8116C89.0918 19.4017 88.0131 18.7186 87.3078 18.3087C85.6898 17.2839 85.6898 16.4642 87.3078 16.8741C88.1376 17.079 89.2578 16.5325 90.6269 15.3711C93.1577 13.185 95.4395 13.4583 96.0204 15.9176C96.4353 17.7622 97.182 18.7869 98.5097 19.3334C99.3394 19.675 99.2979 19.5384 98.2193 18.6503C97.514 18.0354 96.8086 16.7374 96.6842 15.8493C96.5182 14.9612 95.8544 13.8681 95.0661 13.3216L93.7385 12.3652L95.1491 12.2969C95.9374 12.2286 97.7629 13.185 99.2565 14.3464C100.709 15.4394 101.995 16.2592 102.119 16.0543C102.244 15.9176 101.414 15.0978 100.294 14.278C95.5225 10.7256 95.647 10.7256 94.0289 11.6137C92.6598 12.3652 92.4939 12.2969 91.913 10.8622C90.3365 7.10486 89.4237 6.08012 87.8472 6.08012C86.2706 6.08012 84.4037 4.57717 84.4037 3.27917C84.4037 2.32274 88.4695 2.52769 91.0418 3.62075C92.2864 4.16728 94.2779 4.85043 95.398 5.1237C96.6012 5.39696 97.9703 6.28507 98.6341 7.17318C99.5884 8.5395 100.128 8.74445 101.414 8.40287C102.658 8.06129 103.405 8.33455 104.608 9.49592L106.185 10.9989L105.023 9.22266C104.111 7.78802 103.447 7.44644 101.829 7.44644C100.086 7.44644 99.7128 7.17318 98.966 5.46528L98.1363 3.55243L99.049 2.86927C99.5884 2.45938 102.576 2.32274 106.185 2.52769C110.956 2.73264 112.284 2.59601 111.952 1.98116C111.164 0.683159 99.9618 0.478211 97.514 1.77622C95.5225 2.80096 94.0704 2.73264 90.212 1.36632C87.2249 0.273263 84.4866 0.478211 81.1261 2.1178C78.8442 3.21085 76.7698 3.62075 73.6167 3.62075C69.7998 3.68906 69.0115 3.48412 67.435 2.04948C65.6925 0.546527 65.1116 0.478211 56.2331 0.204947L46.8568 -1.09432e-06L44.5749 1.84453ZM55.5278 2.52769C55.6108 3.21085 55.5693 5.05538 55.4034 6.76328L55.1544 9.8375L54.6981 5.32865C54.3662 1.7079 54.4076 0.819791 54.8225 1.09306C55.1129 1.298 55.4034 1.91285 55.5278 2.52769ZM48.7652 3.96233C48.9312 5.19202 49.3876 6.62665 49.8025 7.17318C50.5492 8.1296 50.5492 8.1296 49.6365 7.44644C49.1386 7.03655 48.4748 5.67023 48.1429 4.37222C47.5621 2.18611 47.4791 2.04948 46.1515 2.66432C44.326 3.55243 44.16 3.48412 45.4047 2.32274C47.1057 0.751475 48.4333 1.36632 48.7652 3.96233ZM44.16 3.62075C44.16 3.75738 43.3718 4.7138 42.459 5.80686C41.5048 6.89991 40.4676 8.67613 40.1772 9.8375C39.8868 10.9306 39.6378 11.5454 39.5963 11.1355C39.5963 9.8375 41.0899 4.7138 41.3388 5.1237C41.5048 5.32865 42.1271 5.05538 42.7909 4.44054C44.0771 3.27917 44.16 3.21085 44.16 3.62075ZM32.4189 5.46528C33.0412 5.87517 34.7837 6.4217 36.2773 6.62665L38.974 7.10486L39.0985 10.6573C39.2644 14.9612 39.057 15.0978 35.8624 12.2286C32.9997 9.70087 31.1327 9.63255 29.0998 11.9553C28.2286 12.9117 27.3988 13.5949 27.3158 13.3899C26.818 12.5701 28.1041 7.37813 29.0998 6.14844C30.303 4.50885 30.8008 4.44054 32.4189 5.46528ZM82.0803 5.39696C82.6612 5.73854 83.325 6.69497 83.6154 7.58307C84.1547 9.22266 84.86 13.5949 84.5696 13.5949C84.4452 13.5949 83.6984 12.8434 82.8271 11.9553C80.2963 9.15434 79.508 9.15434 76.4379 11.887C74.9029 13.185 73.4508 14.278 73.2433 14.278C72.9529 14.278 72.787 12.7068 72.787 10.5207V6.76328L74.9858 6.69497C76.1475 6.69497 77.807 6.21675 78.5953 5.73854C80.4208 4.57717 80.7942 4.57717 82.0803 5.39696ZM48.5993 7.78802C49.0972 8.33455 49.9269 8.94939 50.4663 9.08603C51.545 9.35929 51.545 10.6573 50.4663 12.2286C49.9269 12.98 49.8854 13.0484 50.3003 12.2286C51.379 10.1791 50.7152 10.0425 49.4705 12.0236C47.3132 15.4394 45.0728 16.3275 41.6707 15.2345C40.4676 14.8246 40.3846 14.6196 40.5921 12.7068C40.8825 10.1791 42.2516 7.65139 43.4962 7.24149C45.4877 6.55833 47.7695 6.8316 48.5993 7.78802ZM70.1317 8.94939C70.6296 9.8375 71.1689 11.4771 71.3349 12.6385C71.5838 14.6879 71.5008 14.7563 70.0072 15.2345C69.136 15.4394 67.8913 15.6444 67.2275 15.6444C65.568 15.6444 62.6223 13.2533 61.834 11.1355C61.1702 9.56424 61.1702 9.42761 62.166 8.81276C62.7053 8.47118 63.2861 7.85634 63.4521 7.37813C63.701 6.8316 64.6138 6.69497 66.4807 7.03655C68.5551 7.30981 69.4264 7.78802 70.1317 8.94939ZM26.0712 8.94939C26.1956 9.8375 26.3201 11.682 26.3201 13.0484C26.3201 15.3028 26.1956 15.576 25.034 15.9859C24.0797 16.3275 23.167 16.0543 21.7564 14.9612L19.7649 13.4583L21.0096 10.4523C22.1298 7.65139 22.3787 7.44644 24.0382 7.44644C25.5318 7.44644 25.8637 7.71971 26.0712 8.94939ZM90.8343 10.1791C91.4152 11.682 91.8715 13.0484 91.8715 13.2533C91.8715 13.8681 88.594 16.3275 87.7642 16.3275C85.9802 16.3275 85.6483 15.6444 85.6483 11.9553C85.6483 9.97413 85.7728 8.1296 85.9387 7.92465C86.0632 7.65139 87.0174 7.44644 88.0131 7.44644C89.6312 7.44644 89.8801 7.65139 90.8343 10.1791ZM53.9928 17.1473C53.8683 17.6938 53.7438 17.4889 53.7438 16.7374C53.7023 15.9859 53.8268 15.576 53.9513 15.8493C54.0757 16.0543 54.1172 16.6691 53.9928 17.1473ZM56.9384 16.4642C57.6437 17.6255 57.5193 21.0413 56.648 24.1839L55.9012 26.9165L55.1959 24.2522C54.1172 20.0166 54.3662 15.6444 55.7353 15.6444C56.1087 15.6444 56.648 15.9859 56.9384 16.4642ZM46.4834 18.5136C46.11 19.3334 45.8196 20.5631 45.8196 21.2463C45.8196 21.8611 45.6121 22.6126 45.3632 22.8859C45.0313 23.1591 44.9898 22.8175 45.1973 21.7245C45.5292 19.88 46.5664 17.0107 46.8983 17.0107C47.0227 17.0107 46.8153 17.6938 46.4834 18.5136Z" fill="#BC6B00"/>
<path d="M44.5749 1.84453C42.542 3.48412 41.8367 3.68906 38.1442 3.68906C34.9911 3.68906 33.2486 3.27917 30.8838 2.04948C28.3115 0.751475 27.2328 0.546527 24.4531 0.819791C22.6276 1.02474 20.3873 1.63958 19.433 2.18611C17.9395 3.07422 17.4416 3.07422 15.2842 2.1178C12.2556 0.819791 0.804811 0.683159 0.0580224 1.98116C-0.315372 2.59601 1.05374 2.66432 5.90787 2.52769C13.1683 2.18611 14.0396 2.59601 12.8364 5.60191C12.2141 7.17318 11.8407 7.44644 10.0982 7.44644C8.52163 7.44644 7.85782 7.78802 6.94507 9.22266L5.7834 10.9989L7.35996 9.49592C8.56312 8.33455 9.30991 8.06129 10.5546 8.40287C11.8407 8.74445 12.38 8.5395 13.3343 7.24149C15.0768 4.85043 25.1169 1.7079 27.0669 3.0059C28.2286 3.75738 26.1541 6.08012 24.2457 6.08012C22.6276 6.08012 20.5117 8.19792 20.5117 9.8375C20.5117 11.682 19.3916 12.4335 17.8565 11.5454C16.5289 10.8622 16.0725 10.9989 12.8779 13.3899C10.9279 14.7563 9.43437 16.0543 9.51735 16.1909C9.60032 16.3958 10.9279 15.5077 12.463 14.3464C14.0811 13.1167 15.8236 12.2286 16.7363 12.2969L18.2299 12.3652L17.0682 13.185C16.4459 13.6632 15.5331 15.0295 15.1183 16.1909C14.6619 17.4206 14.0396 18.377 13.7077 18.377C13.3758 18.377 13.0024 18.6503 12.8779 18.9918C12.7534 19.2651 13.1268 19.4017 13.7077 19.1968C14.3715 18.9918 15.1183 17.9671 15.6161 16.6008C16.7778 13.3216 18.4788 12.98 21.0511 15.3028C22.4617 16.6008 23.4574 17.079 24.4531 16.8741C26.2786 16.5325 26.3201 17.2839 24.5776 18.377C21.4245 20.2899 20.5532 21.1096 19.682 23.2958L18.7277 25.5502L20.2213 23.0225C21.217 21.3146 22.3372 20.2215 23.6234 19.675C24.951 19.1285 25.8222 18.2404 26.4446 16.8741C27.5233 14.4147 30.5519 11.3405 31.8795 11.3405C33.0827 11.3405 34.7422 13.185 35.406 15.1662C35.8209 16.4642 35.7379 17.1473 34.8252 19.9483L33.705 23.1591L30.5519 22.9542C27.4403 22.8175 27.2743 22.8859 24.951 25.4819C21.8394 28.966 22.2128 29.5125 25.4488 26.2333C27.8966 23.774 28.0626 23.6373 30.6349 24.1156C32.087 24.3205 33.5805 24.3888 33.9124 24.1156C34.2858 23.9106 35.1571 22.0661 35.8624 20.0166C36.8581 17.079 37.3145 16.3275 38.1442 16.3275C39.3889 16.3275 39.2229 17.079 37.1485 21.3829C36.4432 22.8859 35.7379 25.2769 35.6135 26.7116C35.406 28.4195 34.9911 29.7858 34.3273 30.5373C32.087 33.1333 31.5891 34.0897 33.3316 32.4501C35.2816 30.6739 36.2358 28.5561 36.2773 26.0967C36.2773 25.2086 36.8996 23.3641 37.6464 21.9978C38.4347 20.5631 39.3059 18.7869 39.6378 17.9671C40.2187 16.6008 40.2601 16.6008 42.2931 17.6255C44.6579 18.8552 45.0313 20.2899 43.9526 24.0472C43.4962 25.7551 42.625 26.9165 40.924 28.3511C39.2229 29.7858 38.3102 31.0838 37.6464 33.0649C36.5677 36.2758 36.4432 37.3689 37.3145 36.1392C37.6464 35.661 37.9368 34.9095 37.9368 34.4313C37.9368 32.9966 40.0112 30.1274 41.5878 29.2393C42.459 28.8294 43.6207 27.7363 44.2015 26.7799C45.2387 25.2086 45.3217 25.2086 46.193 26.37C47.1887 27.668 47.2302 28.4878 46.8153 33.8164C46.6908 35.7976 46.7323 37.8471 46.8983 38.3936C47.1472 39.1451 47.3132 38.3253 47.3546 35.9342C47.3546 33.9531 47.5206 31.0838 47.6866 29.5808C47.894 27.5997 47.7695 26.165 47.3132 24.6621C46.3174 21.4512 46.4834 19.88 47.977 18.377C49.2631 17.1473 52.3332 15.9176 52.7066 16.5325C52.7896 16.6691 52.4162 18.4453 51.8354 20.4948C50.9226 23.7057 50.8397 24.7304 51.0471 28.761C51.296 32.86 51.2545 33.3382 50.4248 34.0214C49.761 34.6362 49.5535 35.3877 49.595 37.3689C49.678 39.6233 49.678 39.6916 49.8439 37.8471C49.9684 36.754 50.4663 34.9778 51.0056 33.9531C51.8769 32.3135 51.9598 31.562 51.7524 28.2828C51.5035 24.5254 51.9598 22.476 53.0385 22.476C53.329 22.476 53.9513 23.7057 54.4491 25.1403C55.1959 27.3264 55.3619 28.966 55.4034 34.0897C55.4449 42.0827 56.1502 41.946 56.4406 33.8164C56.731 24.9353 58.598 19.7433 59.9671 23.9106C60.2575 24.867 60.3405 26.7116 60.1745 28.8294C59.9256 31.8353 60.0086 32.4501 60.9213 34.0214C61.4607 34.9778 62 36.6857 62.1245 37.8471L62.2904 39.8965L62.3734 37.7788C62.4149 36.3441 62.083 35.0461 61.3777 33.8164C60.1745 31.6986 60.216 32.1085 60.7968 28.2828C61.2117 25.4819 61.1702 24.867 59.9671 20.6997L58.6809 16.1909L60.6309 16.6691C63.0372 17.2156 65.0701 18.9918 65.2361 20.7681C65.3191 21.4512 64.9872 23.3641 64.4478 25.072C63.618 27.8729 63.5766 28.3511 64.1159 30.264C64.4063 31.4254 64.6553 34.0214 64.6553 36.0025C64.6553 38.1203 64.7797 39.2134 64.9872 38.7352C65.485 37.4372 65.402 33.4748 64.8212 30.8788C64.3648 28.761 64.4063 28.4878 65.4435 26.7799L66.5637 24.9353L67.6839 26.7116C68.3477 27.668 69.5509 28.8294 70.3806 29.2393C71.9572 30.1274 73.7827 32.9966 74.239 35.456C74.3635 36.2075 74.6539 36.8223 74.8614 36.8223C75.2762 36.8223 74.239 32.2452 73.4508 30.7422C73.2018 30.1957 71.9987 29.0343 70.7955 28.1462C68.9285 26.7799 68.4722 26.0967 67.7669 23.4324C66.7297 19.7433 67.0201 18.9235 69.7998 17.4206C71.1274 16.6691 71.7912 16.5325 71.8742 17.0107C71.9572 17.4206 72.787 19.1285 73.6582 20.8364C74.5295 22.5443 75.4007 24.7304 75.5252 25.7551C75.6496 26.7799 75.8571 28.1462 75.9815 28.761C76.1475 29.9907 79.757 34.4996 80.0889 33.9531C80.1719 33.8164 79.4251 32.6551 78.3879 31.4937C76.8943 29.7175 76.4794 28.8294 76.272 26.6432C76.106 25.072 75.3177 22.476 74.3635 20.2899C72.7455 16.8057 72.7455 16.6691 73.6167 16.4642C74.5709 16.1909 75.1518 17.2156 76.7283 21.7928L77.5996 24.1839H81.0846C84.4037 24.1839 84.7356 24.3205 86.81 26.5066C88.0131 27.8046 89.0503 28.6927 89.1748 28.4878C89.2993 28.2828 88.2206 26.9165 86.81 25.4819C84.4037 23.0225 83.9473 22.8175 81.1676 22.8175H78.1389L77.0602 19.5384L75.9401 16.3275L76.7698 14.483C77.2677 13.4583 78.1804 12.2286 78.8857 11.7504C80.0059 10.9989 80.3793 11.1355 82.2878 12.6385C83.4494 13.5949 84.6941 15.2345 85.109 16.3275C85.8557 18.377 87.2249 19.7433 88.6355 19.7433C89.1333 19.7433 90.295 21.0413 91.3322 22.8175C93.3236 26.3017 93.6555 26.3017 92.079 22.8175C91.4982 21.5879 90.4609 20.2215 89.7971 19.8116C89.0918 19.4017 88.0131 18.7186 87.3078 18.3087C85.6898 17.2839 85.6898 16.4642 87.3078 16.8741C88.1376 17.079 89.2578 16.5325 90.6269 15.3711C93.1577 13.185 95.4395 13.4583 96.0204 15.9176C96.4353 17.7622 97.182 18.7869 98.5097 19.3334C99.3394 19.675 99.2979 19.5384 98.2193 18.6503C97.514 18.0354 96.8086 16.7374 96.6842 15.8493C96.5182 14.9612 95.8544 13.8681 95.0661 13.3216L93.7385 12.3652L95.1491 12.2969C95.9374 12.2286 97.7629 13.185 99.2565 14.3464C100.709 15.4394 101.995 16.2592 102.119 16.0543C102.244 15.9176 101.414 15.0978 100.294 14.278C95.5225 10.7256 95.647 10.7256 94.0289 11.6137C92.6598 12.3652 92.4939 12.2969 91.913 10.8622C90.3365 7.10486 89.4237 6.08012 87.8472 6.08012C86.2706 6.08012 84.4037 4.57717 84.4037 3.27917C84.4037 2.32274 88.4695 2.52769 91.0418 3.62075C92.2864 4.16728 94.2779 4.85043 95.398 5.1237C96.6012 5.39696 97.9703 6.28507 98.6341 7.17318C99.5884 8.5395 100.128 8.74445 101.414 8.40287C102.658 8.06129 103.405 8.33455 104.608 9.49592L106.185 10.9989L105.023 9.22266C104.111 7.78802 103.447 7.44644 101.829 7.44644C100.086 7.44644 99.7128 7.17318 98.966 5.46528L98.1363 3.55243L99.049 2.86927C99.5884 2.45938 102.576 2.32274 106.185 2.52769C110.956 2.73264 112.284 2.59601 111.952 1.98116C111.164 0.683159 99.9618 0.478211 97.514 1.77622C95.5225 2.80096 94.0704 2.73264 90.212 1.36632C87.2249 0.273263 84.4866 0.478211 81.1261 2.1178C78.8442 3.21085 76.7698 3.62075 73.6167 3.62075C69.7998 3.68906 69.0115 3.48412 67.435 2.04948C65.6925 0.546527 65.1116 0.478211 56.2331 0.204947L46.8568 -1.09432e-06L44.5749 1.84453ZM55.5278 2.52769C55.6108 3.21085 55.5693 5.05538 55.4034 6.76328L55.1544 9.8375L54.6981 5.32865C54.3662 1.7079 54.4076 0.819791 54.8225 1.09306C55.1129 1.298 55.4034 1.91285 55.5278 2.52769ZM48.7652 3.96233C48.9312 5.19202 49.3876 6.62665 49.8025 7.17318C50.5492 8.1296 50.5492 8.1296 49.6365 7.44644C49.1386 7.03655 48.4748 5.67023 48.1429 4.37222C47.5621 2.18611 47.4791 2.04948 46.1515 2.66432C44.326 3.55243 44.16 3.48412 45.4047 2.32274C47.1057 0.751475 48.4333 1.36632 48.7652 3.96233ZM44.16 3.62075C44.16 3.75738 43.3718 4.7138 42.459 5.80686C41.5048 6.89991 40.4676 8.67613 40.1772 9.8375C39.8868 10.9306 39.6378 11.5454 39.5963 11.1355C39.5963 9.8375 41.0899 4.7138 41.3388 5.1237C41.5048 5.32865 42.1271 5.05538 42.7909 4.44054C44.0771 3.27917 44.16 3.21085 44.16 3.62075ZM32.4189 5.46528C33.0412 5.87517 34.7837 6.4217 36.2773 6.62665L38.974 7.10486L39.0985 10.6573C39.2644 14.9612 39.057 15.0978 35.8624 12.2286C32.9997 9.70087 31.1327 9.63255 29.0998 11.9553C28.2286 12.9117 27.3988 13.5949 27.3158 13.3899C26.818 12.5701 28.1041 7.37813 29.0998 6.14844C30.303 4.50885 30.8008 4.44054 32.4189 5.46528ZM82.0803 5.39696C82.6612 5.73854 83.325 6.69497 83.6154 7.58307C84.1547 9.22266 84.86 13.5949 84.5696 13.5949C84.4452 13.5949 83.6984 12.8434 82.8271 11.9553C80.2963 9.15434 79.508 9.15434 76.4379 11.887C74.9029 13.185 73.4508 14.278 73.2433 14.278C72.9529 14.278 72.787 12.7068 72.787 10.5207V6.76328L74.9858 6.69497C76.1475 6.69497 77.807 6.21675 78.5953 5.73854C80.4208 4.57717 80.7942 4.57717 82.0803 5.39696ZM48.5993 7.78802C49.0972 8.33455 49.9269 8.94939 50.4663 9.08603C51.545 9.35929 51.545 10.6573 50.4663 12.2286C49.9269 12.98 49.8854 13.0484 50.3003 12.2286C51.379 10.1791 50.7152 10.0425 49.4705 12.0236C47.3132 15.4394 45.0728 16.3275 41.6707 15.2345C40.4676 14.8246 40.3846 14.6196 40.5921 12.7068C40.8825 10.1791 42.2516 7.65139 43.4962 7.24149C45.4877 6.55833 47.7695 6.8316 48.5993 7.78802ZM70.1317 8.94939C70.6296 9.8375 71.1689 11.4771 71.3349 12.6385C71.5838 14.6879 71.5008 14.7563 70.0072 15.2345C69.136 15.4394 67.8913 15.6444 67.2275 15.6444C65.568 15.6444 62.6223 13.2533 61.834 11.1355C61.1702 9.56424 61.1702 9.42761 62.166 8.81276C62.7053 8.47118 63.2861 7.85634 63.4521 7.37813C63.701 6.8316 64.6138 6.69497 66.4807 7.03655C68.5551 7.30981 69.4264 7.78802 70.1317 8.94939ZM26.0712 8.94939C26.1956 9.8375 26.3201 11.682 26.3201 13.0484C26.3201 15.3028 26.1956 15.576 25.034 15.9859C24.0797 16.3275 23.167 16.0543 21.7564 14.9612L19.7649 13.4583L21.0096 10.4523C22.1298 7.65139 22.3787 7.44644 24.0382 7.44644C25.5318 7.44644 25.8637 7.71971 26.0712 8.94939ZM90.8343 10.1791C91.4152 11.682 91.8715 13.0484 91.8715 13.2533C91.8715 13.8681 88.594 16.3275 87.7642 16.3275C85.9802 16.3275 85.6483 15.6444 85.6483 11.9553C85.6483 9.97413 85.7728 8.1296 85.9387 7.92465C86.0632 7.65139 87.0174 7.44644 88.0131 7.44644C89.6312 7.44644 89.8801 7.65139 90.8343 10.1791ZM53.9928 17.1473C53.8683 17.6938 53.7438 17.4889 53.7438 16.7374C53.7023 15.9859 53.8268 15.576 53.9513 15.8493C54.0757 16.0543 54.1172 16.6691 53.9928 17.1473ZM56.9384 16.4642C57.6437 17.6255 57.5193 21.0413 56.648 24.1839L55.9012 26.9165L55.1959 24.2522C54.1172 20.0166 54.3662 15.6444 55.7353 15.6444C56.1087 15.6444 56.648 15.9859 56.9384 16.4642ZM46.4834 18.5136C46.11 19.3334 45.8196 20.5631 45.8196 21.2463C45.8196 21.8611 45.6121 22.6126 45.3632 22.8859C45.0313 23.1591 44.9898 22.8175 45.1973 21.7245C45.5292 19.88 46.5664 17.0107 46.8983 17.0107C47.0227 17.0107 46.8153 17.6938 46.4834 18.5136Z" fill="url(#paint0_linear_613_208)"/>
<defs>
<linearGradient id="paint0_linear_613_208" x1="56" y1="-6.85452e-07" x2="56" y2="20" gradientUnits="userSpaceOnUse">
<stop stop-color="#BC6B00"/>
<stop offset="1" stop-color="#BC6B00" stop-opacity="0"/>
</linearGradient>
</defs>
</svg>
